<svg width="18" height="18" viewBox="0 0 18 18" fill="none" xmlns="http://www.w3.org/2000/svg">
<path d="M1.18 1.02C1.06 1.02 1 1.1 1 1.2V12.82C1 12.92 1.08 13 1.18 13H13L17 17V1.18C17 1.06 16.92 1 16.82 1H1.2L1.18 1.02Z" fill="#212B36"/>
<mask id="mask0" style="mask-type:alpha" maskUnits="userSpaceOnUse" x="1" y="1" width="16" height="16">
<path d="M1.18 1.02C1.06 1.02 1 1.1 1 1.2V12.82C1 12.92 1.08 13 1.18 13H13L17 17V1.18C17 1.06 16.92 1 16.82 1H1.2L1.18 1.02Z" fill="white"/>
</mask>
<g mask="url(#mask0)">
<rect width="18" height="18" rx="4" fill="#212B36"/>
</g>
</svg>
